<svg xmlns="http://www.w3.org/2000/svg" width="900" height="486" viewBox="0 0 900 486" role="img" aria-label="Live status board: 11 checks tracked, 1 broken, 0 degraded">
<style>
  text{font-family:ui-monospace,SFMono-Regular,Menlo,Consolas,"Liberation Mono",monospace}
  .title{font-size:15px;font-weight:700;fill:#1f2328}
  .sub{font-size:11px;fill:#59636e}
  .statk{font-size:9px;fill:#59636e;letter-spacing:.14em}
  .statv{font-size:17px;font-weight:700;fill:#7F52FF}
  .group{font-size:10px;font-weight:700;fill:#59636e;letter-spacing:.12em}
  .row{font-size:11.5px;fill:#1f2328}
  .meta{font-size:9.5px;fill:#59636e}
  .foot{font-size:9.5px;fill:#818b98}
  .end{text-anchor:end}
  .pulse{animation:pulse 1.6s ease-in-out infinite}
  @keyframes pulse{0%,100%{opacity:1}50%{opacity:.25}}
</style>
<rect width="900" height="486" rx="8" fill="#ffffff"/><rect x="0" y="0" width="900" height="127" fill="#f6f8fa"/><text x="22" y="30" class="title">Is any of this still true?</text><text x="22" y="51" class="sub">Every scheduled job and generated dataset behind this profile, with its age against its deadline. Amber means passing, and</text><text x="22" y="66" class="sub">aging out.</text><text x="22" y="90" class="statk">TRACKED</text><text x="22" y="111" class="statv">11</text><text x="193.2" y="90" class="statk">DEGRADED</text><text x="193.2" y="111" class="statv">0</text><text x="364.4" y="90" class="statk">BROKEN</text><text x="364.4" y="111" class="statv">1</text><text x="535.5999999999999" y="90" class="statk">PASSING</text><text x="535.5999999999999" y="111" class="statv">10</text><text x="706.8" y="90" class="statk">TIGHTEST SLA</text><text x="706.8" y="111" class="statv">21d</text><line x1="0" y1="127" x2="900" y2="127" stroke="#d1d9e0"/><text x="22" y="151" class="group">PIPELINES</text><circle cx="27" cy="170" r="4" fill="#1a7f37"/><text x="42" y="174" class="row">cv-siddharth/CI</text><text x="774" y="174" class="meta" fill="#1a7f37" font-weight="700">OK</text><text x="878" y="174" class="meta end">13h ago</text><circle cx="27" cy="191" r="4" fill="#818b98"/><text x="42" y="195" class="row">cv-siddharth/Refresh project media</text><text x="774" y="195" class="meta" fill="#818b98" font-weight="700">RUNNING</text><text x="878" y="195" class="meta end">just now</text><circle cx="27" cy="212" r="4" fill="#cf222e" class="pulse"/><text x="42" y="216" class="row">cv-siddharth/Lighthouse CI</text><text x="774" y="216" class="meta" fill="#cf222e" font-weight="700">BROKEN</text><text x="878" y="216" class="meta end">13h ago</text><circle cx="27" cy="233" r="4" fill="#1a7f37"/><text x="42" y="237" class="row">cv-siddharth/screenshot-sentinel</text><text x="774" y="237" class="meta" fill="#1a7f37" font-weight="700">OK</text><text x="878" y="237" class="meta end">23h ago</text><circle cx="27" cy="254" r="4" fill="#818b98"/><text x="42" y="258" class="row">darkpandawarrior/Refresh generated content</text><text x="774" y="258" class="meta" fill="#818b98" font-weight="700">RUNNING</text><text x="878" y="258" class="meta end">just now</text><circle cx="27" cy="275" r="4" fill="#1a7f37"/><text x="42" y="279" class="row">darkpandawarrior/Generate contribution snake</text><text x="774" y="279" class="meta" fill="#1a7f37" font-weight="700">OK</text><text x="878" y="279" class="meta end">8h ago</text><text x="22" y="310" class="group">GENERATED DATA, AGE AGAINST ITS DEADLINE</text><circle cx="27" cy="329" r="4" fill="#1a7f37"/><text x="42" y="333" class="row">chess.ts</text><text x="774" y="333" class="meta" fill="#1a7f37" font-weight="700">OK</text><text x="878" y="333" class="meta end">3d of 21d</text><circle cx="27" cy="350" r="4" fill="#1a7f37"/><text x="42" y="354" class="row">chessDeep.ts</text><text x="774" y="354" class="meta" fill="#1a7f37" font-weight="700">OK</text><text x="878" y="354" class="meta end">1d of 21d</text><circle cx="27" cy="371" r="4" fill="#1a7f37"/><text x="42" y="375" class="row">weeb.ts</text><text x="774" y="375" class="meta" fill="#1a7f37" font-weight="700">OK</text><text x="878" y="375" class="meta end">1d of 21d</text><circle cx="27" cy="392" r="4" fill="#1a7f37"/><text x="42" y="396" class="row">store.ts</text><text x="774" y="396" class="meta" fill="#1a7f37" font-weight="700">OK</text><text x="878" y="396" class="meta end">26d of 45d</text><circle cx="27" cy="413" r="4" fill="#1a7f37"/><text x="42" y="417" class="row">timeline.ts</text><text x="774" y="417" class="meta" fill="#1a7f37" font-weight="700">OK</text><text x="878" y="417" class="meta end">1d of 45d</text><circle cx="26" cy="444" r="3.5" fill="#1a7f37"/><text x="36" y="448" class="meta" fill="#1a7f37" font-weight="700">OK</text><text x="54.628" y="448" class="meta">passing</text><circle cx="123.326" cy="444" r="3.5" fill="#9a6700"/><text x="133.326" y="448" class="meta" fill="#9a6700" font-weight="700">DEGRADED</text><text x="186.838" y="448" class="meta">passing, past 70% of its deadline</text><circle cx="406.70000000000005" cy="444" r="3.5" fill="#cf222e"/><text x="416.70000000000005" y="448" class="meta" fill="#cf222e" font-weight="700">BROKEN</text><text x="458.58400000000006" y="448" class="meta">failed, or past its deadline</text><text x="22" y="476" class="foot">Generated 2026-09-02. States read live from the GitHub API and from each file's own generatedAt stamp.</text></svg>