<svg xmlns="http://www.w3.org/2000/svg" width="1056" height="241" viewBox="0 0 1056 241" role="img" aria-label="Four lanes of activity by month since 2019: work delivered, open source merged, writing published, chess played">
<style>
  text{font-family:ui-monospace,SFMono-Regular,Menlo,Consolas,"Liberation Mono",monospace}
  .title{font-size:15px;font-weight:700;fill:#1f2328}
  .sub{font-size:11px;fill:#59636e}
  .statk{font-size:9px;fill:#59636e;letter-spacing:.14em}
  .statv{font-size:17px;font-weight:700;fill:#7F52FF}
  .group{font-size:10px;font-weight:700;fill:#59636e;letter-spacing:.12em}
  .row{font-size:11.5px;fill:#1f2328}
  .meta{font-size:9.5px;fill:#59636e}
  .foot{font-size:9.5px;fill:#818b98}
  .end{text-anchor:end}
  .pulse{animation:pulse 1.6s ease-in-out infinite}
  @keyframes pulse{0%,100%{opacity:1}50%{opacity:.25}}
</style>
<rect width="1056" height="241" rx="8" fill="#ffffff"/><rect x="0" y="0" width="1056" height="67" fill="#f6f8fa"/><text x="22" y="30" class="title">Four things at once, every month since 2019</text><text x="22" y="51" class="sub">The same grammar as a contribution graph, pointed at four dimensions that are actually mine. They overlap on purpose: that overlap is the argument.</text><line x1="0" y1="67" x2="1056" y2="67" stroke="#d1d9e0"/><text x="102" y="97" class="meta end" fill="#7F52FF" font-weight="700">work</text><rect x="114" y="89" width="8" height="8" rx="2" fill="#d1d9e0"/><rect x="124" y="89" width="8" height="8" rx="2" fill="#d1d9e0"/><rect x="134" y="89" width="8" height="8" rx="2" fill="#d1d9e0"/><rect x="144" y="89" width="8" height="8" rx="2" fill="#d1d9e0"/><rect x="154" y="89" width="8" height="8" rx="2" fill="#d1d9e0"/><rect x="164" y="89" width="8" height="8" rx="2" fill="#d1d9e0"/><rect x="174" y="89" width="8" height="8" rx="2" fill="#d1d9e0"/><rect x="184" y="89" width="8" height="8" rx="2" fill="#d1d9e0"/><rect x="194" y="89" width="8" height="8" rx="2" fill="#d1d9e0"/><rect x="204" y="89" width="8" height="8" rx="2" fill="#d1d9e0"/><rect x="214" y="89" width="8" height="8" rx="2" fill="#d1d9e0"/><rect x="224" y="89" width="8" height="8" rx="2" fill="#d1d9e0"/><rect x="234" y="89" width="8" height="8" rx="2" fill="#d1d9e0"/><rect x="244" y="89" width="8" height="8" rx="2" fill="#d1d9e0"/><rect x="254" y="89" width="8" height="8" rx="2" fill="#d1d9e0"/><rect x="264" y="89" width="8" height="8" rx="2" fill="#d1d9e0"/><rect x="274" y="89" width="8" height="8" rx="2" fill="#d3c3ff"/><rect x="284" y="89" width="8" height="8" rx="2" fill="#d3c3ff"/><rect x="294" y="89" width="8" height="8" rx="2" fill="#d3c3ff"/><rect x="304" y="89" width="8" height="8" rx="2" fill="#d1d9e0"/><rect x="314" y="89" width="8" height="8" rx="2" fill="#d1d9e0"/><rect x="324" y="89" width="8" height="8" rx="2" fill="#d1d9e0"/><rect x="334" y="89" width="8" height="8" rx="2" fill="#d1d9e0"/><rect x="344" y="89" width="8" height="8" rx="2" fill="#d1d9e0"/><rect x="354" y="89" width="8" height="8" rx="2" fill="#b59bff"/><rect x="364" y="89" width="8" height="8" rx="2" fill="#b59bff"/><rect x="374" y="89" width="8" height="8" rx="2" fill="#b59bff"/><rect x="384" y="89" width="8" height="8" rx="2" fill="#b59bff"/><rect x="394" y="89" width="8" height="8" rx="2" fill="#b59bff"/><rect x="404" y="89" width="8" height="8" rx="2" fill="#b59bff"/><rect x="414" y="89" width="8" height="8" rx="2" fill="#b59bff"/><rect x="424" y="89" width="8" height="8" rx="2" fill="#b59bff"/><rect x="434" y="89" width="8" height="8" rx="2" fill="#b59bff"/><rect x="444" y="89" width="8" height="8" rx="2" fill="#b59bff"/><rect x="454" y="89" width="8" height="8" rx="2" fill="#b59bff"/><rect x="464" y="89" width="8" height="8" rx="2" fill="#b59bff"/><rect x="474" y="89" width="8" height="8" rx="2" fill="#b59bff"/><rect x="484" y="89" width="8" height="8" rx="2" fill="#b59bff"/><rect x="494" y="89" width="8" height="8" rx="2" fill="#b59bff"/><rect x="504" y="89" width="8" height="8" rx="2" fill="#b59bff"/><rect x="514" y="89" width="8" height="8" rx="2" fill="#b59bff"/><rect x="524" y="89" width="8" height="8" rx="2" fill="#b59bff"/><rect x="534" y="89" width="8" height="8" rx="2" fill="#b59bff"/><rect x="544" y="89" width="8" height="8" rx="2" fill="#b59bff"/><rect x="554" y="89" width="8" height="8" rx="2" fill="#b59bff"/><rect x="564" y="89" width="8" height="8" rx="2" fill="#b59bff"/><rect x="574" y="89" width="8" height="8" rx="2" fill="#b59bff"/><rect x="584" y="89" width="8" height="8" rx="2" fill="#b59bff"/><rect x="594" y="89" width="8" height="8" rx="2" fill="#b59bff"/><rect x="604" y="89" width="8" height="8" rx="2" fill="#b59bff"/><rect x="614" y="89" width="8" height="8" rx="2" fill="#b59bff"/><rect x="624" y="89" width="8" height="8" rx="2" fill="#b59bff"/><rect x="634" y="89" width="8" height="8" rx="2" fill="#b59bff"/><rect x="644" y="89" width="8" height="8" rx="2" fill="#8b62ff"/><rect x="654" y="89" width="8" height="8" rx="2" fill="#8b62ff"/><rect x="664" y="89" width="8" height="8" rx="2" fill="#8b62ff"/><rect x="674" y="89" width="8" height="8" rx="2" fill="#8b62ff"/><rect x="684" y="89" width="8" height="8" rx="2" fill="#8b62ff"/><rect x="694" y="89" width="8" height="8" rx="2" fill="#8b62ff"/><rect x="704" y="89" width="8" height="8" rx="2" fill="#8b62ff"/><rect x="714" y="89" width="8" height="8" rx="2" fill="#8b62ff"/><rect x="724" y="89" width="8" height="8" rx="2" fill="#8b62ff"/><rect x="734" y="89" width="8" height="8" rx="2" fill="#8b62ff"/><rect x="744" y="89" width="8" height="8" rx="2" fill="#8b62ff"/><rect x="754" y="89" width="8" height="8" rx="2" fill="#8b62ff"/><rect x="764" y="89" width="8" height="8" rx="2" fill="#8b62ff"/><rect x="774" y="89" width="8" height="8" rx="2" fill="#8b62ff"/><rect x="784" y="89" width="8" height="8" rx="2" fill="#8b62ff"/><rect x="794" y="89" width="8" height="8" rx="2" fill="#8b62ff"/><rect x="804" y="89" width="8" height="8" rx="2" fill="#8b62ff"/><rect x="814" y="89" width="8" height="8" rx="2" fill="#8b62ff"/><rect x="824" y="89" width="8" height="8" rx="2" fill="#8b62ff"/><rect x="834" y="89" width="8" height="8" rx="2" fill="#8b62ff"/><rect x="844" y="89" width="8" height="8" rx="2" fill="#8b62ff"/><rect x="854" y="89" width="8" height="8" rx="2" fill="#8b62ff"/><rect x="864" y="89" width="8" height="8" rx="2" fill="#8b62ff"/><rect x="874" y="89" width="8" height="8" rx="2" fill="#8b62ff"/><rect x="884" y="89" width="8" height="8" rx="2" fill="#8b62ff"/><rect x="894" y="89" width="8" height="8" rx="2" fill="#8b62ff"/><rect x="904" y="89" width="8" height="8" rx="2" fill="#8b62ff"/><rect x="914" y="89" width="8" height="8" rx="2" fill="#8b62ff"/><rect x="924" y="89" width="8" height="8" rx="2" fill="#8b62ff"/><rect x="934" y="89" width="8" height="8" rx="2" fill="#8b62ff"/><rect x="944" y="89" width="8" height="8" rx="2" fill="#8b62ff"/><rect x="954" y="89" width="8" height="8" rx="2" fill="#8b62ff"/><rect x="964" y="89" width="8" height="8" rx="2" fill="#8b62ff"/><rect x="974" y="89" width="8" height="8" rx="2" fill="#8b62ff"/><rect x="984" y="89" width="8" height="8" rx="2" fill="#7f52ff"/><rect x="994" y="89" width="8" height="8" rx="2" fill="#7f52ff"/><rect x="1004" y="89" width="8" height="8" rx="2" fill="#7f52ff"/><rect x="1014" y="89" width="8" height="8" rx="2" fill="#7f52ff"/><rect x="1024" y="89" width="8" height="8" rx="2" fill="#7f52ff"/><text x="102" y="123" class="meta end" fill="#3fb950" font-weight="700">open source</text><rect x="114" y="115" width="8" height="8" rx="2" fill="#d1d9e0"/><rect x="124" y="115" width="8" height="8" rx="2" fill="#d1d9e0"/><rect x="134" y="115" width="8" height="8" rx="2" fill="#d1d9e0"/><rect x="144" y="115" width="8" height="8" rx="2" fill="#d1d9e0"/><rect x="154" y="115" width="8" height="8" rx="2" fill="#d1d9e0"/><rect x="164" y="115" width="8" height="8" rx="2" fill="#d1d9e0"/><rect x="174" y="115" width="8" height="8" rx="2" fill="#c5eaca"/><rect x="184" y="115" width="8" height="8" rx="2" fill="#d1d9e0"/><rect x="194" y="115" width="8" height="8" rx="2" fill="#d1d9e0"/><rect x="204" y="115" width="8" height="8" rx="2" fill="#d1d9e0"/><rect x="214" y="115" width="8" height="8" rx="2" fill="#d1d9e0"/><rect x="224" y="115" width="8" height="8" rx="2" fill="#d1d9e0"/><rect x="234" y="115" width="8" height="8" rx="2" fill="#d1d9e0"/><rect x="244" y="115" width="8" height="8" rx="2" fill="#c5eaca"/><rect x="254" y="115" width="8" height="8" rx="2" fill="#d1d9e0"/><rect x="264" y="115" width="8" height="8" rx="2" fill="#d1d9e0"/><rect x="274" y="115" width="8" height="8" rx="2" fill="#d1d9e0"/><rect x="284" y="115" width="8" height="8" rx="2" fill="#d1d9e0"/><rect x="294" y="115" width="8" height="8" rx="2" fill="#d1d9e0"/><rect x="304" y="115" width="8" height="8" rx="2" fill="#c4e9c9"/><rect x="314" y="115" width="8" height="8" rx="2" fill="#c5eaca"/><rect x="324" y="115" width="8" height="8" rx="2" fill="#c5eaca"/><rect x="334" y="115" width="8" height="8" rx="2" fill="#d1d9e0"/><rect x="344" y="115" width="8" height="8" rx="2" fill="#d1d9e0"/><rect x="354" y="115" width="8" height="8" rx="2" fill="#d1d9e0"/><rect x="364" y="115" width="8" height="8" rx="2" fill="#d1d9e0"/><rect x="374" y="115" width="8" height="8" rx="2" fill="#d1d9e0"/><rect x="384" y="115" width="8" height="8" rx="2" fill="#d1d9e0"/><rect x="394" y="115" width="8" height="8" rx="2" fill="#d1d9e0"/><rect x="404" y="115" width="8" height="8" rx="2" fill="#d1d9e0"/><rect x="414" y="115" width="8" height="8" rx="2" fill="#d1d9e0"/><rect x="424" y="115" width="8" height="8" rx="2" fill="#c5eaca"/><rect x="434" y="115" width="8" height="8" rx="2" fill="#d1d9e0"/><rect x="444" y="115" width="8" height="8" rx="2" fill="#d1d9e0"/><rect x="454" y="115" width="8" height="8" rx="2" fill="#d1d9e0"/><rect x="464" y="115" width="8" height="8" rx="2" fill="#d1d9e0"/><rect x="474" y="115" width="8" height="8" rx="2" fill="#d1d9e0"/><rect x="484" y="115" width="8" height="8" rx="2" fill="#c5eaca"/><rect x="494" y="115" width="8" height="8" rx="2" fill="#d1d9e0"/><rect x="504" y="115" width="8" height="8" rx="2" fill="#c5eaca"/><rect x="514" y="115" width="8" height="8" rx="2" fill="#d1d9e0"/><rect x="524" y="115" width="8" height="8" rx="2" fill="#d1d9e0"/><rect x="534" y="115" width="8" height="8" rx="2" fill="#d1d9e0"/><rect x="544" y="115" width="8" height="8" rx="2" fill="#d1d9e0"/><rect x="554" y="115" width="8" height="8" rx="2" fill="#d1d9e0"/><rect x="564" y="115" width="8" height="8" rx="2" fill="#d1d9e0"/><rect x="574" y="115" width="8" height="8" rx="2" fill="#d1d9e0"/><rect x="584" y="115" width="8" height="8" rx="2" fill="#d1d9e0"/><rect x="594" y="115" width="8" height="8" rx="2" fill="#d1d9e0"/><rect x="604" y="115" width="8" height="8" rx="2" fill="#d1d9e0"/><rect x="614" y="115" width="8" height="8" rx="2" fill="#d1d9e0"/><rect x="624" y="115" width="8" height="8" rx="2" fill="#d1d9e0"/><rect x="634" y="115" width="8" height="8" rx="2" fill="#c5eaca"/><rect x="644" y="115" width="8" height="8" rx="2" fill="#d1d9e0"/><rect x="654" y="115" width="8" height="8" rx="2" fill="#d1d9e0"/><rect x="664" y="115" width="8" height="8" rx="2" fill="#d1d9e0"/><rect x="674" y="115" width="8" height="8" rx="2" fill="#d1d9e0"/><rect x="684" y="115" width="8" height="8" rx="2" fill="#d1d9e0"/><rect x="694" y="115" width="8" height="8" rx="2" fill="#d1d9e0"/><rect x="704" y="115" width="8" height="8" rx="2" fill="#d1d9e0"/><rect x="714" y="115" width="8" height="8" rx="2" fill="#d1d9e0"/><rect x="724" y="115" width="8" height="8" rx="2" fill="#d1d9e0"/><rect x="734" y="115" width="8" height="8" rx="2" fill="#d1d9e0"/><rect x="744" y="115" width="8" height="8" rx="2" fill="#d1d9e0"/><rect x="754" y="115" width="8" height="8" rx="2" fill="#d1d9e0"/><rect x="764" y="115" width="8" height="8" rx="2" fill="#d1d9e0"/><rect x="774" y="115" width="8" height="8" rx="2" fill="#d1d9e0"/><rect x="784" y="115" width="8" height="8" rx="2" fill="#d1d9e0"/><rect x="794" y="115" width="8" height="8" rx="2" fill="#d1d9e0"/><rect x="804" y="115" width="8" height="8" rx="2" fill="#d1d9e0"/><rect x="814" y="115" width="8" height="8" rx="2" fill="#d1d9e0"/><rect x="824" y="115" width="8" height="8" rx="2" fill="#d1d9e0"/><rect x="834" y="115" width="8" height="8" rx="2" fill="#c5eaca"/><rect x="844" y="115" width="8" height="8" rx="2" fill="#c5eaca"/><rect x="854" y="115" width="8" height="8" rx="2" fill="#c5eaca"/><rect x="864" y="115" width="8" height="8" rx="2" fill="#c5eaca"/><rect x="874" y="115" width="8" height="8" rx="2" fill="#c5eaca"/><rect x="884" y="115" width="8" height="8" rx="2" fill="#c5eaca"/><rect x="894" y="115" width="8" height="8" rx="2" fill="#c5eaca"/><rect x="904" y="115" width="8" height="8" rx="2" fill="#c4eaca"/><rect x="914" y="115" width="8" height="8" rx="2" fill="#c4eac9"/><rect x="924" y="115" width="8" height="8" rx="2" fill="#c4eac9"/><rect x="934" y="115" width="8" height="8" rx="2" fill="#c4eac9"/><rect x="944" y="115" width="8" height="8" rx="2" fill="#c4eac9"/><rect x="954" y="115" width="8" height="8" rx="2" fill="#c4e9c9"/><rect x="964" y="115" width="8" height="8" rx="2" fill="#c4e9c9"/><rect x="974" y="115" width="8" height="8" rx="2" fill="#c3e9c8"/><rect x="984" y="115" width="8" height="8" rx="2" fill="#c1e8c6"/><rect x="994" y="115" width="8" height="8" rx="2" fill="#c3e9c8"/><rect x="1004" y="115" width="8" height="8" rx="2" fill="#85d390"/><rect x="1014" y="115" width="8" height="8" rx="2" fill="#3fb950"/><rect x="1024" y="115" width="8" height="8" rx="2" fill="#83d28e"/><text x="102" y="149" class="meta end" fill="#d29922" font-weight="700">writing</text><rect x="114" y="141" width="8" height="8" rx="2" fill="#d1d9e0"/><rect x="124" y="141" width="8" height="8" rx="2" fill="#d1d9e0"/><rect x="134" y="141" width="8" height="8" rx="2" fill="#d1d9e0"/><rect x="144" y="141" width="8" height="8" rx="2" fill="#d1d9e0"/><rect x="154" y="141" width="8" height="8" rx="2" fill="#edd6a7"/><rect x="164" y="141" width="8" height="8" rx="2" fill="#d29922"/><rect x="174" y="141" width="8" height="8" rx="2" fill="#d1d9e0"/><rect x="184" y="141" width="8" height="8" rx="2" fill="#d1d9e0"/><rect x="194" y="141" width="8" height="8" rx="2" fill="#d1d9e0"/><rect x="204" y="141" width="8" height="8" rx="2" fill="#d1d9e0"/><rect x="214" y="141" width="8" height="8" rx="2" fill="#d1d9e0"/><rect x="224" y="141" width="8" height="8" rx="2" fill="#d1d9e0"/><rect x="234" y="141" width="8" height="8" rx="2" fill="#d1d9e0"/><rect x="244" y="141" width="8" height="8" rx="2" fill="#d1d9e0"/><rect x="254" y="141" width="8" height="8" rx="2" fill="#d1d9e0"/><rect x="264" y="141" width="8" height="8" rx="2" fill="#d1d9e0"/><rect x="274" y="141" width="8" height="8" rx="2" fill="#d1d9e0"/><rect x="284" y="141" width="8" height="8" rx="2" fill="#dbad4e"/><rect x="294" y="141" width="8" height="8" rx="2" fill="#d1d9e0"/><rect x="304" y="141" width="8" height="8" rx="2" fill="#d1d9e0"/><rect x="314" y="141" width="8" height="8" rx="2" fill="#d1d9e0"/><rect x="324" y="141" width="8" height="8" rx="2" fill="#d1d9e0"/><rect x="334" y="141" width="8" height="8" rx="2" fill="#d1d9e0"/><rect x="344" y="141" width="8" height="8" rx="2" fill="#d1d9e0"/><rect x="354" y="141" width="8" height="8" rx="2" fill="#d1d9e0"/><rect x="364" y="141" width="8" height="8" rx="2" fill="#d1d9e0"/><rect x="374" y="141" width="8" height="8" rx="2" fill="#d1d9e0"/><rect x="384" y="141" width="8" height="8" rx="2" fill="#d1d9e0"/><rect x="394" y="141" width="8" height="8" rx="2" fill="#d1d9e0"/><rect x="404" y="141" width="8" height="8" rx="2" fill="#dbad4e"/><rect x="414" y="141" width="8" height="8" rx="2" fill="#d1d9e0"/><rect x="424" y="141" width="8" height="8" rx="2" fill="#e9cc91"/><rect x="434" y="141" width="8" height="8" rx="2" fill="#d1d9e0"/><rect x="444" y="141" width="8" height="8" rx="2" fill="#d1d9e0"/><rect x="454" y="141" width="8" height="8" rx="2" fill="#d1d9e0"/><rect x="464" y="141" width="8" height="8" rx="2" fill="#d1d9e0"/><rect x="474" y="141" width="8" height="8" rx="2" fill="#d1d9e0"/><rect x="484" y="141" width="8" height="8" rx="2" fill="#d1d9e0"/><rect x="494" y="141" width="8" height="8" rx="2" fill="#d1d9e0"/><rect x="504" y="141" width="8" height="8" rx="2" fill="#d1d9e0"/><rect x="514" y="141" width="8" height="8" rx="2" fill="#d1d9e0"/><rect x="524" y="141" width="8" height="8" rx="2" fill="#d1d9e0"/><rect x="534" y="141" width="8" height="8" rx="2" fill="#d1d9e0"/><rect x="544" y="141" width="8" height="8" rx="2" fill="#d1d9e0"/><rect x="554" y="141" width="8" height="8" rx="2" fill="#d1d9e0"/><rect x="564" y="141" width="8" height="8" rx="2" fill="#d1d9e0"/><rect x="574" y="141" width="8" height="8" rx="2" fill="#d1d9e0"/><rect x="584" y="141" width="8" height="8" rx="2" fill="#d1d9e0"/><rect x="594" y="141" width="8" height="8" rx="2" fill="#d1d9e0"/><rect x="604" y="141" width="8" height="8" rx="2" fill="#d1d9e0"/><rect x="614" y="141" width="8" height="8" rx="2" fill="#d1d9e0"/><rect x="624" y="141" width="8" height="8" rx="2" fill="#d1d9e0"/><rect x="634" y="141" width="8" height="8" rx="2" fill="#d1d9e0"/><rect x="644" y="141" width="8" height="8" rx="2" fill="#d1d9e0"/><rect x="654" y="141" width="8" height="8" rx="2" fill="#d1d9e0"/><rect x="664" y="141" width="8" height="8" rx="2" fill="#d1d9e0"/><rect x="674" y="141" width="8" height="8" rx="2" fill="#d1d9e0"/><rect x="684" y="141" width="8" height="8" rx="2" fill="#d1d9e0"/><rect x="694" y="141" width="8" height="8" rx="2" fill="#d1d9e0"/><rect x="704" y="141" width="8" height="8" rx="2" fill="#d1d9e0"/><rect x="714" y="141" width="8" height="8" rx="2" fill="#d1d9e0"/><rect x="724" y="141" width="8" height="8" rx="2" fill="#d1d9e0"/><rect x="734" y="141" width="8" height="8" rx="2" fill="#d1d9e0"/><rect x="744" y="141" width="8" height="8" rx="2" fill="#d1d9e0"/><rect x="754" y="141" width="8" height="8" rx="2" fill="#d1d9e0"/><rect x="764" y="141" width="8" height="8" rx="2" fill="#d1d9e0"/><rect x="774" y="141" width="8" height="8" rx="2" fill="#d1d9e0"/><rect x="784" y="141" width="8" height="8" rx="2" fill="#d1d9e0"/><rect x="794" y="141" width="8" height="8" rx="2" fill="#d1d9e0"/><rect x="804" y="141" width="8" height="8" rx="2" fill="#d1d9e0"/><rect x="814" y="141" width="8" height="8" rx="2" fill="#d1d9e0"/><rect x="824" y="141" width="8" height="8" rx="2" fill="#d1d9e0"/><rect x="834" y="141" width="8" height="8" rx="2" fill="#d1d9e0"/><rect x="844" y="141" width="8" height="8" rx="2" fill="#d1d9e0"/><rect x="854" y="141" width="8" height="8" rx="2" fill="#d1d9e0"/><rect x="864" y="141" width="8" height="8" rx="2" fill="#d1d9e0"/><rect x="874" y="141" width="8" height="8" rx="2" fill="#d1d9e0"/><rect x="884" y="141" width="8" height="8" rx="2" fill="#d1d9e0"/><rect x="894" y="141" width="8" height="8" rx="2" fill="#d1d9e0"/><rect x="904" y="141" width="8" height="8" rx="2" fill="#d1d9e0"/><rect x="914" y="141" width="8" height="8" rx="2" fill="#d1d9e0"/><rect x="924" y="141" width="8" height="8" rx="2" fill="#d1d9e0"/><rect x="934" y="141" width="8" height="8" rx="2" fill="#d1d9e0"/><rect x="944" y="141" width="8" height="8" rx="2" fill="#d1d9e0"/><rect x="954" y="141" width="8" height="8" rx="2" fill="#d1d9e0"/><rect x="964" y="141" width="8" height="8" rx="2" fill="#d1d9e0"/><rect x="974" y="141" width="8" height="8" rx="2" fill="#d1d9e0"/><rect x="984" y="141" width="8" height="8" rx="2" fill="#d1d9e0"/><rect x="994" y="141" width="8" height="8" rx="2" fill="#d1d9e0"/><rect x="1004" y="141" width="8" height="8" rx="2" fill="#d1d9e0"/><rect x="1014" y="141" width="8" height="8" rx="2" fill="#e9cc91"/><rect x="1024" y="141" width="8" height="8" rx="2" fill="#e9cc91"/><text x="102" y="175" class="meta end" fill="#58a6ff" font-weight="700">chess</text><rect x="114" y="167" width="8" height="8" rx="2" fill="#d1d9e0"/><rect x="124" y="167" width="8" height="8" rx="2" fill="#bedcff"/><rect x="134" y="167" width="8" height="8" rx="2" fill="#a3ceff"/><rect x="144" y="167" width="8" height="8" rx="2" fill="#91c4ff"/><rect x="154" y="167" width="8" height="8" rx="2" fill="#a8d1ff"/><rect x="164" y="167" width="8" height="8" rx="2" fill="#9bcaff"/><rect x="174" y="167" width="8" height="8" rx="2" fill="#9bcaff"/><rect x="184" y="167" width="8" height="8" rx="2" fill="#aad2ff"/><rect x="194" y="167" width="8" height="8" rx="2" fill="#aad2ff"/><rect x="204" y="167" width="8" height="8" rx="2" fill="#9bcaff"/><rect x="214" y="167" width="8" height="8" rx="2" fill="#94c6ff"/><rect x="224" y="167" width="8" height="8" rx="2" fill="#a7d0ff"/><rect x="234" y="167" width="8" height="8" rx="2" fill="#b3d7ff"/><rect x="244" y="167" width="8" height="8" rx="2" fill="#a0cdff"/><rect x="254" y="167" width="8" height="8" rx="2" fill="#acd3ff"/><rect x="264" y="167" width="8" height="8" rx="2" fill="#a3ceff"/><rect x="274" y="167" width="8" height="8" rx="2" fill="#a0ccff"/><rect x="284" y="167" width="8" height="8" rx="2" fill="#96c7ff"/><rect x="294" y="167" width="8" height="8" rx="2" fill="#99c9ff"/><rect x="304" y="167" width="8" height="8" rx="2" fill="#9ac9ff"/><rect x="314" y="167" width="8" height="8" rx="2" fill="#abd2ff"/><rect x="324" y="167" width="8" height="8" rx="2" fill="#b3d7ff"/><rect x="334" y="167" width="8" height="8" rx="2" fill="#6fb2ff"/><rect x="344" y="167" width="8" height="8" rx="2" fill="#58a6ff"/><rect x="354" y="167" width="8" height="8" rx="2" fill="#5aa7ff"/><rect x="364" y="167" width="8" height="8" rx="2" fill="#87bfff"/><rect x="374" y="167" width="8" height="8" rx="2" fill="#83bdff"/><rect x="384" y="167" width="8" height="8" rx="2" fill="#86beff"/><rect x="394" y="167" width="8" height="8" rx="2" fill="#89c0ff"/><rect x="404" y="167" width="8" height="8" rx="2" fill="#7cb9ff"/><rect x="414" y="167" width="8" height="8" rx="2" fill="#6cb1ff"/><rect x="424" y="167" width="8" height="8" rx="2" fill="#6eb1ff"/><rect x="434" y="167" width="8" height="8" rx="2" fill="#90c4ff"/><rect x="444" y="167" width="8" height="8" rx="2" fill="#b0d5ff"/><rect x="454" y="167" width="8" height="8" rx="2" fill="#91c5ff"/><rect x="464" y="167" width="8" height="8" rx="2" fill="#8dc2ff"/><rect x="474" y="167" width="8" height="8" rx="2" fill="#95c7ff"/><rect x="484" y="167" width="8" height="8" rx="2" fill="#83bdff"/><rect x="494" y="167" width="8" height="8" rx="2" fill="#79b8ff"/><rect x="504" y="167" width="8" height="8" rx="2" fill="#75b5ff"/><rect x="514" y="167" width="8" height="8" rx="2" fill="#a3ceff"/><rect x="524" y="167" width="8" height="8" rx="2" fill="#89c0ff"/><rect x="534" y="167" width="8" height="8" rx="2" fill="#97c7ff"/><rect x="544" y="167" width="8" height="8" rx="2" fill="#a5cfff"/><rect x="554" y="167" width="8" height="8" rx="2" fill="#b5d8ff"/><rect x="564" y="167" width="8" height="8" rx="2" fill="#c3dfff"/><rect x="574" y="167" width="8" height="8" rx="2" fill="#aed4ff"/><rect x="584" y="167" width="8" height="8" rx="2" fill="#8ac1ff"/><rect x="594" y="167" width="8" height="8" rx="2" fill="#9ac9ff"/><rect x="604" y="167" width="8" height="8" rx="2" fill="#add3ff"/><rect x="614" y="167" width="8" height="8" rx="2" fill="#bddcff"/><rect x="624" y="167" width="8" height="8" rx="2" fill="#afd4ff"/><rect x="634" y="167" width="8" height="8" rx="2" fill="#9eccff"/><rect x="644" y="167" width="8" height="8" rx="2" fill="#a7d0ff"/><rect x="654" y="167" width="8" height="8" rx="2" fill="#8fc3ff"/><rect x="664" y="167" width="8" height="8" rx="2" fill="#9dcbff"/><rect x="674" y="167" width="8" height="8" rx="2" fill="#a6d0ff"/><rect x="684" y="167" width="8" height="8" rx="2" fill="#badaff"/><rect x="694" y="167" width="8" height="8" rx="2" fill="#a0ccff"/><rect x="704" y="167" width="8" height="8" rx="2" fill="#b9daff"/><rect x="714" y="167" width="8" height="8" rx="2" fill="#c4dfff"/><rect x="724" y="167" width="8" height="8" rx="2" fill="#bbdbff"/><rect x="734" y="167" width="8" height="8" rx="2" fill="#badaff"/><rect x="744" y="167" width="8" height="8" rx="2" fill="#b5d8ff"/><rect x="754" y="167" width="8" height="8" rx="2" fill="#aed4ff"/><rect x="764" y="167" width="8" height="8" rx="2" fill="#bcdbff"/><rect x="774" y="167" width="8" height="8" rx="2" fill="#bddcff"/><rect x="784" y="167" width="8" height="8" rx="2" fill="#c0deff"/><rect x="794" y="167" width="8" height="8" rx="2" fill="#b9d9ff"/><rect x="804" y="167" width="8" height="8" rx="2" fill="#bddcff"/><rect x="814" y="167" width="8" height="8" rx="2" fill="#c6e1ff"/><rect x="824" y="167" width="8" height="8" rx="2" fill="#c4e0ff"/><rect x="834" y="167" width="8" height="8" rx="2" fill="#c7e1ff"/><rect x="844" y="167" width="8" height="8" rx="2" fill="#c9e2ff"/><rect x="854" y="167" width="8" height="8" rx="2" fill="#cbe3ff"/><rect x="864" y="167" width="8" height="8" rx="2" fill="#c9e2ff"/><rect x="874" y="167" width="8" height="8" rx="2" fill="#cae3ff"/><rect x="884" y="167" width="8" height="8" rx="2" fill="#c9e2ff"/><rect x="894" y="167" width="8" height="8" rx="2" fill="#cae3ff"/><rect x="904" y="167" width="8" height="8" rx="2" fill="#c6e0ff"/><rect x="914" y="167" width="8" height="8" rx="2" fill="#cae3ff"/><rect x="924" y="167" width="8" height="8" rx="2" fill="#90c4ff"/><rect x="934" y="167" width="8" height="8" rx="2" fill="#c3dfff"/><rect x="944" y="167" width="8" height="8" rx="2" fill="#c8e1ff"/><rect x="954" y="167" width="8" height="8" rx="2" fill="#c6e1ff"/><rect x="964" y="167" width="8" height="8" rx="2" fill="#cbe3ff"/><rect x="974" y="167" width="8" height="8" rx="2" fill="#c1deff"/><rect x="984" y="167" width="8" height="8" rx="2" fill="#9eccff"/><rect x="994" y="167" width="8" height="8" rx="2" fill="#c4e0ff"/><rect x="1004" y="167" width="8" height="8" rx="2" fill="#95c7ff"/><rect x="1014" y="167" width="8" height="8" rx="2" fill="#9ac9ff"/><rect x="1024" y="167" width="8" height="8" rx="2" fill="#abd2ff"/><text x="114" y="208" class="meta" text-anchor="middle">2019</text><text x="234" y="208" class="meta" text-anchor="middle">2020</text><text x="354" y="208" class="meta" text-anchor="middle">2021</text><text x="474" y="208" class="meta" text-anchor="middle">2022</text><text x="594" y="208" class="meta" text-anchor="middle">2023</text><text x="714" y="208" class="meta" text-anchor="middle">2024</text><text x="834" y="208" class="meta" text-anchor="middle">2025</text><text x="954" y="208" class="meta" text-anchor="middle">2026</text><text x="22" y="229" class="foot">Generated 2026-08-30 from cv-siddharth timeline.ts, derived from employment periods, the chess corpus, the writing archive and the public PR record.</text></svg>