<svg xmlns="http://www.w3.org/2000/svg" width="900" height="352" viewBox="0 0 900 352" role="img" aria-label="Recent activity across 12 repositories, most recent first">
<style>
  text{font-family:ui-monospace,SFMono-Regular,Menlo,Consolas,monospace}
  .t{font-size:15px;font-weight:700;fill:#e6edf3}
  .sub{font-size:11px;fill:#7d8590}
  .when{font-size:10.5px;fill:#7d8590}
  .repo{font-size:11px;font-weight:700;fill:#a371f7}
  .msg{font-size:11px;fill:#e6edf3}
  .f{font-size:9.5px;fill:#7d8590}
  .dot{animation:b 2.4s ease-in-out infinite}
  @keyframes b{0%,100%{opacity:1}50%{opacity:.3}}
</style>
<rect width="900" height="352" rx="8" fill="#0d1117"/>
<rect x="0" y="0" width="900" height="66" fill="#161b22"/>
<circle cx="27" cy="24" r="4" fill="#3fb950" class="dot"/>
<text x="40" y="28" class="t">Lately</text>
<text x="22" y="50" class="sub">The last 12 pushes across 12 repositories. Not a commit count: the actual subjects, so you can see what kind of work it is.</text>
<line x1="0" y1="66" x2="900" y2="66" stroke="#21262d"/>
<text x="22" y="88" class="when">1m ago</text><text x="100" y="88" class="repo">darkpandawarrior</text><text x="272" y="88" class="msg">feat(profile): the ticker, the ledger, the provenance graph, and reveals</text><text x="22" y="108" class="when">9h ago</text><text x="100" y="108" class="repo">cv-siddharth</text><text x="272" y="108" class="msg">The numbers were zero in the HTML, and /hire had no door</text><text x="22" y="128" class="when">9h ago</text><text x="100" y="128" class="repo">Mileway</text><text x="272" y="128" class="msg">Link the case study, not the portfolio root</text><text x="22" y="148" class="when">9h ago</text><text x="100" y="148" class="repo">kmp-build-logic</text><text x="272" y="148" class="msg">docs: no dashes in README prose, which is the house rule</text><text x="22" y="168" class="when">9h ago</text><text x="100" y="168" class="repo">cv-siddharth-kmp</text><text x="272" y="168" class="msg">docs: no dashes in README prose, which is the house rule</text><text x="22" y="188" class="when">9h ago</text><text x="100" y="188" class="repo">the-loopdown</text><text x="272" y="188" class="msg">Link the case study, not the portfolio root</text><text x="22" y="208" class="when">9h ago</text><text x="100" y="208" class="repo">PaymentsLab</text><text x="272" y="208" class="msg">Link the case study, not the portfolio root</text><text x="22" y="228" class="when">9h ago</text><text x="100" y="228" class="repo">Kursi</text><text x="272" y="228" class="msg">docs: no dashes in README prose, which is the house rule</text><text x="22" y="248" class="when">9h ago</text><text x="100" y="248" class="repo">kmp-app-template</text><text x="272" y="248" class="msg">Link the case study, not the portfolio root</text><text x="22" y="268" class="when">9h ago</text><text x="100" y="268" class="repo">kmp-toolkit</text><text x="272" y="268" class="msg">Link the case study, not the portfolio root</text><text x="22" y="288" class="when">2d ago</text><text x="100" y="288" class="repo">darkpandawarrior.github.io</text><text x="272" y="288" class="msg">fix(fdroid): publish the signed FOSS APK, not the first glob match</text><text x="22" y="308" class="when">13d ago</text><text x="100" y="308" class="repo">career-ops</text><text x="272" y="308" class="msg">fix(add-entry): key non-Latin headings and dedup keys faithfully</text>
<text x="22" y="340" class="f">Generated 2026-08-28 from the public events feed.</text>
</svg>